<?xml version="1.0" standalone="no"?>
<!DOCTYPE svg PUBLIC "-//W3C//DTD SVG 20010904//EN"
 "http://www.w3.org/TR/2001/REC-SVG-20010904/DTD/svg10.dtd">
<svg version="1.0" xmlns="http://www.w3.org/2000/svg"
 width="1080.000000pt" height="1080.000000pt" viewBox="0 0 1080.000000 1080.000000"
 preserveAspectRatio="xMidYMid meet">
<metadata>
Created by potrace 1.14, written by Peter Selinger 2001-2017
</metadata>
<g transform="translate(0.000000,1080.000000) scale(0.100000,-0.100000)"
fill="#000000" stroke="none">
<path d="M5056 10714 c-1415 -123 -2655 -748 -3584 -1807 -692 -788 -1141
-1789 -1266 -2822 -53 -433 -49 -997 8 -1405 160 -1126 665 -2153 1456 -2964
354 -362 733 -657 1160 -903 1245 -716 2740 -895 4129 -493 1653 477 2986
1750 3542 3380 82 240 151 504 198 755 51 273 91 696 91 965 0 160 -22 477
-46 670 -222 1773 -1343 3330 -2959 4111 -736 355 -1520 532 -2335 528 -135
-1 -312 -8 -394 -15z m704 -74 c1300 -72 2496 -606 3415 -1525 823 -823 1352
-1906 1489 -3050 39 -323 49 -739 26 -1036 -117 -1479 -822 -2804 -1980 -3721
-725 -573 -1614 -951 -2525 -1074 -439 -59 -981 -59 -1420 0 -825 111 -1643
436 -2325 924 -1122 802 -1891 2024 -2119 3367 -81 475 -97 997 -45 1465 172
1563 1033 2961 2351 3816 930 604 2024 895 3133 834z"/>
<path d="M2870 9061 c-114 -37 -231 -139 -285 -246 -29 -58 -30 -64 -30 -200
0 -138 1 -141 33 -207 22 -46 53 -85 102 -132 39 -36 75 -66 80 -66 7 0 10
-281 10 -792 0 -522 4 -806 11 -831 11 -41 61 -97 112 -124 28 -16 66 -18 289
-21 l257 -3 3 -149 3 -149 35 -36 c45 -46 80 -55 223 -55 l117 0 0 -261 0
-262 215 -586 c274 -744 298 -805 350 -883 82 -123 222 -231 360 -279 124 -43
214 -50 600 -47 l350 3 3 424 c2 333 0 426 -10 433 -7 4 -184 8 -393 8 -378 0
-380 0 -430 24 -97 45 -149 126 -149 231 0 105 58 195 154 239 43 20 66 21
435 26 l390 5 3 1702 2 1703 -23 6 c-13 3 -294 4 -623 2 -580 -4 -601 -5 -679
-26 -266 -74 -472 -283 -535 -544 -18 -73 -20 -118 -20 -385 l0 -301 -139 -4
c-154 -3 -172 -10 -218 -78 -21 -30 -23 -44 -23 -171 l0 -139 -110 0 -110 0 0
658 0 658 28 16 c48 29 117 102 150 159 76 134 82 304 14 438 -37 75 -142 179
-217 216 -55 27 -70 29 -185 32 -69 1 -136 -1 -150 -6z m1985 -1895 c140 -37
255 -147 307 -294 30 -88 23 -225 -18 -312 -37 -77 -109 -160 -171 -196 -225
-132 -520 -48 -627 180 -62 132 -60 271 7 401 90 178 307 273 502 221z"/>
<path d="M6184 8531 c-2 -2 -4 -789 -4 -1747 l0 -1743 43 -13 c24 -7 94 -13
167 -13 105 0 135 4 190 24 134 48 246 136 321 255 21 34 44 67 50 74 20 24
38 -8 49 -91 27 -192 -58 -417 -203 -541 -153 -130 -367 -185 -549 -142 -32 7
-60 11 -63 8 -3 -3 -5 -201 -5 -440 l0 -434 68 6 c156 16 253 42 367 99 121
60 191 118 354 291 206 218 424 510 573 766 55 94 194 367 217 426 12 30 14
31 94 37 134 10 199 36 295 116 41 35 69 68 94 117 45 86 53 117 73 278 15
127 33 215 74 370 35 132 25 242 -32 350 -50 94 -116 159 -205 202 l-78 38
-22 135 c-37 229 -93 413 -180 589 -286 583 -855 941 -1558 980 -69 4 -127 5
-130 3z m585 -1778 c14 -11 36 -37 48 -59 55 -97 132 -146 228 -146 106 0 161
34 231 146 63 100 182 113 243 27 68 -96 -54 -307 -229 -396 -107 -55 -249
-72 -365 -45 -168 39 -327 183 -367 333 -11 44 -11 51 11 92 13 25 36 50 54
60 40 20 110 14 146 -12z"/>
<path d="M1418 5471 c-86 -9 -91 -18 -78 -135 6 -54 9 -104 6 -112 -4 -10 -23
-14 -63 -14 -32 0 -98 -5 -148 -10 -89 -10 -171 -17 -479 -41 -201 -16 -198
-14 -190 -127 11 -129 5 -126 204 -108 91 9 235 20 320 26 85 5 189 15 230 21
146 20 140 20 150 -4 5 -12 12 -61 15 -110 5 -69 10 -89 25 -97 23 -12 180 5
196 22 20 20 -41 668 -64 686 -17 13 -30 13 -124 3z"/>
<path d="M9407 5358 c-17 -13 -37 -100 -37 -160 0 -42 32 -68 84 -68 25 0 75
-6 113 -14 37 -8 111 -20 163 -26 52 -6 131 -17 174 -23 l79 -12 -54 -24 c-30
-13 -92 -40 -139 -61 -47 -20 -116 -50 -155 -65 -38 -15 -112 -47 -163 -71
-51 -24 -105 -47 -119 -50 -30 -8 -47 -46 -57 -123 -9 -69 9 -101 58 -101 39
0 324 -38 335 -44 4 -3 108 -19 232 -36 123 -16 275 -37 338 -46 133 -19 136
-17 151 67 5 30 11 68 15 84 8 42 -6 57 -62 66 -26 4 -155 23 -286 42 -131 19
-240 37 -242 39 -2 2 42 23 98 47 56 24 167 73 247 108 80 36 152 68 160 71 8
2 43 17 77 33 61 27 62 28 68 76 4 26 10 61 15 76 14 43 -3 75 -42 81 -100 15
-275 40 -533 76 -159 22 -336 47 -393 55 -56 8 -104 15 -105 15 -2 0 -11 -6
-20 -12z"/>
<path d="M1579 4596 c-30 -15 -257 -91 -304 -101 -16 -3 -175 -54 -352 -112
-361 -120 -342 -108 -311 -202 10 -30 18 -62 18 -71 0 -9 9 -25 20 -35 22 -20
-6 -27 280 65 69 22 130 40 135 40 6 0 27 -53 47 -118 20 -64 40 -125 43 -134
6 -14 -24 -27 -189 -80 -221 -71 -221 -71 -192 -155 9 -25 16 -56 16 -67 1
-31 26 -59 52 -58 13 0 156 43 318 96 162 53 383 124 490 158 107 35 201 68
208 75 17 17 15 50 -10 124 -22 67 -37 89 -60 89 -7 0 -101 -29 -208 -65 -107
-36 -197 -61 -201 -57 -9 10 -92 262 -88 266 2 2 95 34 207 71 117 38 206 73
209 82 10 24 -38 173 -61 189 -25 17 -34 17 -67 0z"/>
<path d="M9126 4082 c-11 -5 -33 -42 -53 -90 -33 -81 -33 -83 -16 -112 9 -17
20 -30 23 -30 5 0 14 -7 140 -114 308 -262 366 -311 370 -316 4 -4 68 -57 195
-161 11 -10 42 -36 69 -59 62 -52 81 -50 116 15 49 90 54 147 17 179 -47 40
-104 87 -120 99 -14 11 -10 27 46 161 l62 148 105 -6 c79 -5 109 -4 122 6 17
13 78 149 78 174 0 27 -45 42 -145 48 -137 8 -226 15 -320 26 -44 5 -134 12
-200 16 -66 3 -127 7 -135 9 -43 8 -338 14 -354 7z m435 -243 c52 -1 113 -4
136 -8 l42 -6 -32 -77 c-18 -42 -35 -79 -39 -83 -7 -7 -210 159 -217 177 -2 6
1 8 6 5 5 -3 52 -7 104 -8z"/>
<path d="M1935 3688 c-11 -6 -22 -14 -25 -18 -8 -11 -112 -75 -185 -114 -36
-20 -168 -100 -293 -178 -125 -77 -264 -164 -310 -191 -77 -46 -83 -52 -77
-76 4 -14 71 -130 150 -257 78 -127 146 -240 149 -252 8 -24 44 -37 74 -28 43
14 142 86 142 104 0 9 -20 49 -43 87 -24 39 -73 118 -110 176 l-65 107 100 62
c83 52 102 60 112 49 7 -8 57 -85 110 -172 54 -87 104 -161 112 -164 7 -3 35
8 62 25 26 16 58 33 70 36 13 4 29 18 38 31 14 22 11 30 -90 193 -59 94 -106
175 -106 180 0 11 141 102 158 102 10 0 164 -243 193 -304 21 -45 42 -53 81
-33 100 52 133 75 136 95 3 21 -281 495 -320 534 -21 21 -35 22 -63 6z"/>
<path d="M8769 3373 c-24 -32 -47 -64 -50 -73 -4 -8 7 -51 23 -95 17 -44 40
-109 53 -145 12 -36 46 -119 74 -184 28 -66 50 -120 48 -121 -3 -3 -225 42
-244 49 -9 4 -80 15 -158 26 -161 22 -159 23 -225 -61 -47 -60 -50 -80 -12
-109 100 -77 244 -193 264 -212 13 -13 99 -84 193 -158 93 -74 210 -168 260
-207 49 -40 98 -73 107 -73 23 0 128 128 128 156 0 13 -13 32 -32 47 -18 13
-47 38 -63 53 -17 16 -103 87 -193 158 -89 71 -161 130 -160 131 2 1 28 -1 58
-5 30 -4 119 -15 197 -25 137 -17 144 -18 162 -1 36 32 35 68 -1 148 -19 40
-40 89 -47 108 -7 19 -25 67 -41 106 l-27 72 166 -132 c91 -73 182 -143 201
-156 19 -13 50 -36 68 -52 18 -15 41 -28 50 -28 20 0 132 140 132 164 0 8 -17
28 -37 43 -21 15 -114 89 -208 163 -93 75 -240 188 -325 252 -85 64 -181 139
-213 167 -76 67 -93 66 -148 -6z"/>
<path d="M2835 2572 c-24 -5 -55 -31 -56 -46 0 -6 -42 -65 -94 -131 -184 -234
-510 -667 -513 -681 -3 -13 11 -29 91 -101 56 -51 74 -48 124 16 176 229 218
279 228 272 5 -4 56 -42 113 -85 56 -42 102 -79 102 -82 0 -2 -48 -68 -107
-146 -60 -77 -114 -149 -122 -160 -22 -30 -4 -59 68 -117 65 -51 77 -57 97
-43 6 4 96 118 200 254 104 136 244 318 311 405 136 175 148 195 133 223 -16
30 -126 110 -152 110 -19 0 -49 -34 -147 -165 -68 -91 -127 -168 -132 -171 -9
-5 -221 150 -227 166 -2 5 53 84 122 175 69 92 126 174 126 182 0 31 -133 132
-165 125z"/>
<path d="M8017 2527 c-55 -28 -107 -83 -107 -112 0 -24 91 -152 215 -303 33
-40 75 -94 92 -120 18 -26 51 -72 73 -103 98 -139 103 -217 17 -283 -117 -90
-172 -49 -452 341 -61 84 -129 178 -151 210 -62 86 -69 86 -160 18 -74 -56
-76 -58 -70 -93 3 -19 18 -49 34 -66 16 -17 55 -67 87 -111 366 -501 451 -580
622 -576 29 0 72 8 95 18 55 21 183 113 224 161 60 71 69 98 69 207 0 93 -2
105 -33 165 -37 75 -99 164 -264 384 -65 86 -130 175 -145 198 -62 95 -77 102
-146 65z"/>
<path d="M7219 1992 c-71 -29 -99 -48 -99 -66 0 -6 16 -50 36 -96 86 -205 124
-304 117 -310 -5 -4 -51 -24 -103 -45 -52 -21 -109 -44 -126 -51 l-31 -13 -83
200 c-66 158 -87 200 -104 205 -23 5 -166 -50 -178 -70 -12 -18 -9 -58 5 -75
14 -17 107 -239 127 -305 28 -88 260 -632 274 -641 11 -7 30 -4 63 9 26 10 59
21 73 23 33 7 60 32 60 54 0 10 -8 38 -19 61 -36 82 -123 303 -124 316 -1 8
49 35 127 68 71 30 130 53 131 52 2 -2 35 -82 74 -178 39 -96 75 -182 80 -190
11 -19 53 -18 116 5 105 37 112 49 81 125 -56 135 -218 536 -262 645 -116 294
-122 305 -153 304 -9 0 -46 -12 -82 -27z"/>
<path d="M3835 1912 c-11 -9 -38 -39 -60 -67 -22 -27 -59 -70 -81 -95 -23 -25
-66 -73 -95 -108 -30 -35 -76 -90 -104 -122 -55 -64 -254 -297 -319 -374 -50
-59 -65 -86 -59 -103 13 -32 162 -91 201 -79 18 6 79 74 126 140 13 19 19 18
165 -44 l151 -63 -5 -51 c-3 -28 -8 -71 -10 -96 -7 -68 9 -88 97 -126 78 -33
113 -35 122 -5 3 9 8 54 11 101 3 47 8 103 10 125 2 22 7 67 10 100 3 33 8 74
10 92 5 34 10 98 25 308 19 272 22 370 12 395 -7 19 -30 34 -88 58 -91 37 -92
37 -119 14z m-40 -514 c-4 -73 -8 -139 -8 -145 0 -19 -13 -16 -100 21 -68 28
-77 35 -65 47 7 8 40 46 73 84 33 39 68 79 78 89 9 11 17 23 17 28 0 4 3 8 6
8 4 0 3 -60 -1 -132z"/>
<path d="M4542 1665 c-12 -15 -22 -48 -26 -87 -3 -35 -18 -112 -31 -173 -29
-127 -135 -688 -142 -755 -5 -40 -2 -47 18 -57 13 -7 125 -31 248 -54 192 -35
226 -39 238 -27 7 8 21 54 30 103 15 80 15 89 0 100 -8 6 -73 21 -144 34 -70
12 -128 23 -129 24 -4 4 67 373 91 477 13 58 29 141 35 185 6 44 16 96 21 116
13 51 11 85 -4 98 -11 8 -151 41 -179 41 -4 0 -15 -11 -26 -25z"/>
<path d="M5499 1590 c-172 -4 -230 -8 -243 -19 -15 -13 -16 -52 -10 -475 8
-616 7 -606 29 -623 12 -8 47 -13 96 -13 71 0 79 2 98 26 19 24 19 36 14 233
l-5 208 47 7 c26 3 119 6 205 6 116 0 160 3 168 13 13 16 20 187 8 206 -7 11
-44 13 -216 7 l-207 -7 -5 98 c-3 54 -4 100 -2 102 2 2 96 5 210 7 155 2 209
7 216 16 13 21 10 192 -4 206 -8 8 -41 11 -92 10 -45 -1 -183 -5 -307 -8z"/>
</g>
</svg>
